<?xml version="1.0" encoding="UTF-8"?>
<svg width="16px" height="16px" viewBox="0 0 16 16" version="1.1" xmlns="http://www.w3.org/2000/svg" xmlns:xlink="http://www.w3.org/1999/xlink">
    <title>Untitled</title>
    <g id="Page-1" stroke="none" stroke-width="1" fill="none" fill-rule="evenodd">
        <g id="cart" fill="#000000" fill-rule="nonzero">
            <path d="M4.46944677,11.3496747 L4.97841658,11.3496747 L13.6563096,11.3496747 C13.8659975,11.3496747 14.0507479,11.1886029 14.110623,10.9536092 L15.9802832,3.61300578 C16.023002,3.44528361 15.9954394,3.26382212 15.9060017,3.12350554 C15.8165328,2.98318896 15.6756575,2.90053372 15.526001,2.90053372 L3.46216343,2.90053372 L2.82428711,0.396028931 C2.76444323,0.161071741 2.5796616,0 2.36997367,0 L0.474032233,0 C0.21225044,0 0,0.24811187 0,0.554250492 C0,0.860352573 0.21225044,1.10853752 0.474032233,1.10853752 L2.01656668,1.10853752 L2.65141175,3.6010204 C2.65334925,3.60924208 2.65538051,3.61739067 2.65763051,3.62542964 L4.34407151,10.2466913 C3.38144451,10.3224038 2.61791168,11.261721 2.61791168,12.4061781 C2.61791168,13.5999653 3.44850715,14.5711826 4.46941552,14.5711826 L4.94001025,14.5711826 C5.14566692,15.3956521 5.79741828,16 6.56804487,16 C7.33864022,16 7.99042283,15.3956886 8.1960795,14.5711826 L10.7111472,14.5711826 C10.9168039,15.3956521 11.5685552,16 12.3391818,16 C13.1097772,16 13.7615598,15.3956886 13.9672165,14.5711826 L14.5779365,14.5711826 C14.8397183,14.5711826 15.0519687,14.3229976 15.0519687,14.0168955 C15.0519687,13.7107935 14.8397183,13.4626085 14.5779365,13.4626085 L13.9672165,13.4626085 C13.7615598,12.6381024 13.1098084,12.0337911 12.3391818,12.0337911 C11.5685552,12.0337911 10.9167726,12.6381024 10.7111472,13.4626085 L8.1960795,13.4626085 C7.99042283,12.6381024 7.33867147,12.0337911 6.56804487,12.0337911 C5.79741828,12.0337911 5.14563567,12.6381024 4.94001025,13.4626085 L4.46941552,13.4626085 C3.97122699,13.4626085 3.5659449,12.9886746 3.5659449,12.4061416 C3.5659449,11.8236085 3.97125824,11.3496747 4.46944677,11.3496747 Z M11.4233362,4.00903471 L14.8902496,4.00903471 L14.2377483,6.5707989 L11.4233362,6.5707989 L11.4233362,4.00903471 L11.4233362,4.00903471 Z M11.4233049,7.67937296 L13.9553727,7.67937296 L13.3029026,10.2411371 L11.4233049,10.2411371 L11.4233049,7.67937296 Z M7.91576642,4.00903471 L10.475303,4.00903471 L10.475303,6.5707989 L7.91576642,6.5707989 L7.91576642,4.00903471 Z M7.91573517,7.67937296 L10.4752717,7.67937296 L10.4752717,10.2411371 L7.91573517,10.2411371 L7.91573517,7.67937296 L7.91573517,7.67937296 Z M6.96776445,10.2411371 L6.96776445,10.2411371 L5.33185481,10.2411371 L4.67938471,7.67937296 L6.96776445,7.67937296 L6.96776445,10.2411371 L6.96776445,10.2411371 Z M3.74457027,4.00903471 L6.9677332,4.00903471 L6.9677332,6.5707989 L4.39704037,6.5707989 L3.74457027,4.00903471 Z M12.3392131,13.1423286 C12.7516202,13.1423286 13.0871209,13.5346304 13.0871209,14.016859 C13.0871209,14.4990876 12.7516202,14.8913894 12.3392131,14.8913894 C11.926806,14.8913894 11.5913053,14.4990876 11.5913053,14.016859 C11.5913053,13.5346304 11.926806,13.1423286 12.3392131,13.1423286 Z M6.56807613,13.1423286 C6.98048323,13.1423286 7.31598393,13.5346304 7.31598393,14.016859 C7.31598393,14.4990876 6.98048323,14.8913894 6.56807613,14.8913894 C6.15566902,14.8913894 5.82016832,14.4990876 5.82016832,14.016859 C5.82016832,13.5346304 6.15566902,13.1423286 6.56807613,13.1423286 Z" id="Shape"></path>
        </g>
    </g>
</svg>