<?xml version="1.0" encoding="UTF-8"?>
<svg width="21px" height="21px" viewBox="0 0 21 21" version="1.1" xmlns="http://www.w3.org/2000/svg" xmlns:xlink="http://www.w3.org/1999/xlink">
    <title>Untitled</title>
    <g id="Page-1" stroke="none" stroke-width="1" fill="none" fill-rule="evenodd">
        <g id="lotus" fill-rule="nonzero">
            <g id="Group" transform="translate(0.390625, 0.448430)">
                <path d="M15.2212109,14.682287 C13.44625,15.8586996 11.4487109,16.1733632 9.60972656,15.7374888 C9.60960938,15.7375785 9.60953125,15.7376233 9.60941406,15.737713 C11.4486719,16.1734978 13.4462891,15.8588789 15.2212109,14.682287 Z M15.7073828,14.3336323 C15.5499219,14.4556502 15.3878516,14.5720179 15.2212109,14.682287 C15.3880859,14.5717489 15.5501563,14.4553812 15.7073828,14.3336323 Z M15.2578516,11.2550224 C16.1158984,9.54892377 16.4476953,7.66367713 16.3101172,5.85600897 C17.3339844,5.9935426 18.324375,6.35932735 19.2188672,6.93569507 C19.2015625,8.5590583 18.7917578,10.163722 18.0349219,11.5633632 C17.5299219,12.4960538 16.8741797,13.3315695 16.0885156,14.0195067 C15.9646484,14.1279372 15.8375781,14.2327354 15.7073828,14.3336323 C15.8378516,14.2326009 15.965,14.1278475 16.08875,14.0195964 C17.4391406,14.5699103 18.1971875,15.2794619 18.1971875,16.0197758 C18.1971875,17.6992377 14.3714453,19.0607175 9.65214844,19.0607175 C4.93285156,19.0607175 1.10714844,17.6991928 1.10714844,16.0197758 C1.10714844,15.2876682 1.84789062,14.5886547 3.15742187,14.0435874 C3.42226562,14.2732287 3.70246094,14.486861 3.99757812,14.6824215 C5.77261719,15.8588789 7.77027344,16.1735426 9.60949219,15.7377578 C9.60953125,15.7376682 9.60960937,15.7376233 9.6096875,15.7376233 C9.60988281,15.7375336 9.60996094,15.7375336 9.61003906,15.7374888 C11.8822656,15.3280717 13.9988281,13.7584305 15.2578516,11.2550224 L15.2578516,11.2550224 Z" id="Shape" fill="#88DF8E"></path>
                <path d="M3.96101562,11.2550224 C3.10296875,9.54892377 2.77117188,7.66367713 2.90875,5.85600897 C1.88488281,5.9935426 0.894492188,6.35932735 0,6.93569507 C0.028671875,9.64632287 1.15199219,12.304574 3.15746094,14.0435874 C3.42226563,14.2731839 3.70246094,14.4868161 3.99753906,14.6823767 C5.77257812,15.8588341 7.77023437,16.1734978 9.60945312,15.737713 C9.60933594,15.7376233 9.60921875,15.7375785 9.60914063,15.7374888 C7.33675781,15.3281614 5.22011719,13.7585202 3.96101562,11.2550224 Z" id="Path" fill="#FF5A58"></path>
                <path d="M2.90875,5.85600897 C2.77117187,7.66363229 3.10296875,9.54887892 3.96101562,11.2550224 C5.22007813,13.7585202 7.33675781,15.3282063 9.60914063,15.7375336 C7.31070313,14.1709417 5.76417969,11.2433632 5.76417969,7.89013453 C5.76417969,6.10408072 6.20292969,4.43878924 6.96042969,3.03565022 C5.98621094,2.53533632 4.93429688,2.2664574 3.873125,2.25165919 C3.33335938,3.35556054 3.00535156,4.58663677 2.90875,5.85600897 L2.90875,5.85600897 Z" id="Path" fill="#FF9C9B"></path>
                <path d="M9.60945312,0.0424663677 L9.60964844,15.7374439 C9.60976562,15.7374439 9.60988281,15.7374439 9.60996094,15.7374439 C11.9083203,14.1707623 13.4546875,11.2432735 13.4546875,7.89013453 C13.4546875,6.10399103 13.0159375,4.43869955 12.2584766,3.03547085 C11.5938281,1.80412556 10.6837891,0.774618834 9.60945312,0.0424663677 Z" id="Path" fill="#FF9C9B"></path>
                <path d="M9.60953125,0.0424663677 L9.60933594,15.7374439 C9.60921875,15.7374439 9.60910156,15.7374439 9.60902344,15.7374439 C7.31066406,14.1707623 5.76429688,11.2432735 5.76429688,7.89013453 C5.76429688,6.10399103 6.20304688,4.43869955 6.96050781,3.03547085 C7.62515625,1.80412556 8.53519531,0.774618834 9.60953125,0.0424663677 Z" id="Path" fill="#FF5A58"></path>
                <path d="M15.2578516,11.2550224 C16.1158984,9.54892377 16.4476953,7.66367713 16.3101172,5.85600897 C17.3339844,5.9935426 18.324375,6.35932735 19.2188672,6.93569507 C19.1901953,9.64632287 18.066875,12.304574 16.0614062,14.0435874 C15.7966016,14.2731839 15.5164062,14.4868161 15.2213281,14.6823767 C13.4462891,15.8588341 11.4486328,16.1734978 9.60941406,15.737713 C9.60953125,15.7376233 9.60964844,15.7375785 9.60972656,15.7374888 C11.8821094,15.3281614 13.9987891,13.7585202 15.2578516,11.2550224 Z" id="Path" fill="#FF9C9B"></path>
                <path d="M16.3101562,5.85600897 C16.4477344,7.66363229 16.1159375,9.54887892 15.2578906,11.2550224 C13.9988281,13.7585202 11.8821484,15.3282063 9.60976562,15.7375336 C11.9082031,14.1709417 13.4547266,11.2433632 13.4547266,7.89013453 C13.4547266,6.10408072 13.0159766,4.43878924 12.2584766,3.03565022 C13.2326953,2.53533632 14.2846094,2.2664574 15.3457812,2.25165919 C15.8855469,3.35556054 16.2135547,4.58663677 16.3101562,5.85600897 L16.3101562,5.85600897 Z" id="Path" fill="#FF5A58"></path>
            </g>
            <g id="Group" fill="#000000">
                <path d="M17.233125,14.3308072 C17.8858984,13.658565 18.4453125,12.8742601 18.8849609,12.0043946 C19.5973828,10.5949776 19.9829297,8.99914798 19.9999893,7.38950673 C20.0016797,7.22538117 19.9251953,7.07331839 19.8005469,6.99300448 C18.9505469,6.44529148 18.0280859,6.08080717 17.0564062,5.90775785 C16.9243359,4.70174888 16.5923828,3.53484305 16.076875,2.48049327 C16.0069141,2.3373991 15.8755469,2.24982063 15.7314844,2.25156951 C14.7255859,2.26560538 13.7396094,2.49215247 12.7977734,2.92493274 C12.1196484,1.77542601 11.2311719,0.808475336 10.1994141,0.105336323 C10.0764844,0.0215695067 9.92355469,0.0215695067 9.80058594,0.105336323 C8.76882812,0.808475336 7.88039062,1.77542601 7.20222656,2.92493274 C6.26046875,2.49210762 5.27457031,2.26569507 4.26839844,2.25165919 C4.12378906,2.2493722 3.99296875,2.33748879 3.92300781,2.48058296 C3.40746094,3.53502242 3.07546875,4.70206278 2.9434375,5.90820628 C1.97230469,6.08089686 1.05035156,6.44479821 0.199335937,6.99313901 C0.0746875,7.07345291 -0.001796875,7.2255157 -0.000106496033,7.38964126 C0.016953125,8.99932735 0.402539062,10.5951121 1.11492187,12.0045291 C1.56105469,12.8871749 2.13027344,13.6819283 2.79542969,14.3606726 C1.41585937,15.0883857 1.10699219,15.8941256 1.10699219,16.4682511 C1.10699219,17.5084753 2.0675,18.4001345 3.88472656,19.0468161 C5.53511719,19.6341704 7.72203125,19.9576233 10.0426172,19.9576233 C12.3632422,19.9576233 14.5501562,19.6341704 16.2005469,19.0468161 C18.0177734,18.4001345 18.9782812,17.5084753 18.9782812,16.4682511 C18.9784375,15.8842601 18.6596875,15.0652018 17.233125,14.3308072 Z M19.2121484,7.64721973 C19.0992187,10.5544843 17.6609766,13.2547982 15.4165234,14.7423767 C14.4165625,15.405157 13.3148047,15.7947982 12.1925,15.8969955 C13.7634375,15.0797309 15.0918359,13.7067713 15.9866406,11.9275785 C16.7257422,10.4579821 17.118125,8.79452915 17.1212891,7.1170852 C17.1214844,7.02085202 17.1201563,6.92475336 17.1178125,6.82874439 C17.8530469,6.98071749 18.5553906,7.25506726 19.2121484,7.64721973 L19.2121484,7.64721973 Z M15.3100781,11.479148 C14.4924609,13.1048879 13.2765625,14.3565919 11.8395313,15.0956054 C12.3350781,14.5184305 12.7677734,13.8665022 13.1233984,13.1557848 C13.8512109,11.7012556 14.2359375,10.0354709 14.2359375,8.33852018 C14.2359375,6.71156951 13.8820703,5.11336323 13.2114844,3.70242152 C13.9526563,3.37896861 14.7225,3.19542601 15.5069141,3.15587444 C16.6753516,5.73843049 16.6059375,8.90255605 15.3100781,11.479148 Z M9.60945312,1.32479821 L9.60953125,6.32035874 C9.60953125,6.56802691 9.78445312,6.76878924 10.0001562,6.76878924 C10.2158984,6.76878924 10.3907812,6.56798206 10.3907812,6.32035874 L10.3907031,1.32479821 C12.29625,2.93134529 13.4546875,5.54914798 13.4546875,8.33852018 C13.4546875,11.1278027 12.2963281,13.7455157 10.3908984,15.3520628 L10.3908203,10.3562332 C10.3908203,10.108565 10.2159375,9.90780269 10.0001953,9.90780269 C9.78445312,9.90780269 9.60957031,10.108565 9.60957031,10.3562332 L9.60964844,15.3523767 C7.70398437,13.7458744 6.54542969,11.1279372 6.54542969,8.33847534 C6.54542969,5.54914798 7.70390625,2.93134529 9.60945312,1.32479821 Z M4.493125,3.15596413 C5.27773437,3.1955157 6.04757812,3.37892377 6.78871094,3.70237668 C6.11808594,5.11336323 5.76421875,6.71152466 5.76421875,8.33852018 C5.76421875,10.0354709 6.14894531,11.7012556 6.87675781,13.1557848 C7.23246094,13.8666368 7.66519531,14.5186099 8.16085937,15.0958744 C6.72363281,14.356861 5.50765625,13.1051121 4.68992187,11.4792377 C3.39410156,8.90264574 3.3246875,5.73852018 4.493125,3.15596413 Z M0.787851562,7.64730942 C1.44523437,7.25470852 2.14730469,6.98085202 2.88214844,6.8290583 C2.87980469,6.92497758 2.87847656,7.02098655 2.87867187,7.11713004 C2.881875,8.79457399 3.27421875,10.4579821 4.01332031,11.9276233 C4.908125,13.7068161 6.23652344,15.0797758 7.80746094,15.8970404 C6.68515625,15.794843 5.5834375,15.4052018 4.5834375,14.7424664 C2.3390625,13.2548879 0.90078125,10.5545291 0.787851562,7.64730942 Z M10.0427734,19.0607175 C4.99058594,19.0607175 1.88839844,17.5507623 1.88839844,16.4682063 C1.88839844,15.9942152 2.48410156,15.4482063 3.48808594,14.99713 C3.71472656,15.183722 3.94984375,15.3581166 4.19285156,15.5191928 C5.48925781,16.3784305 6.94117187,16.8216592 8.40355469,16.8216143 C8.93671875,16.8216143 9.47132812,16.7619731 10.0001562,16.6427803 C10.5289453,16.7619731 11.0632812,16.8215695 11.5964453,16.8215695 C13.0587109,16.8215695 14.5108594,16.378296 15.8071094,15.519148 C16.0607031,15.3510762 16.3054297,15.1680269 16.5412109,14.9721973 C17.5803906,15.428565 18.1971484,15.9840359 18.1971484,16.4682511 C18.1971484,17.5507175 15.095,19.0607175 10.0427734,19.0607175 L10.0427734,19.0607175 Z" id="Shape"></path>
                <path d="M10.0001953,8.78690583 C10.2159375,8.78690583 10.3908203,8.5861435 10.3908203,8.33847534 L10.3908203,8.33816143 C10.3908203,8.09049327 10.2159375,7.88991031 10.0001953,7.88991031 C9.78445312,7.88991031 9.60957031,8.09080717 9.60957031,8.33847534 C9.60957031,8.5861435 9.78445313,8.78690583 10.0001953,8.78690583 L10.0001953,8.78690583 Z" id="Path"></path>
            </g>
        </g>
    </g>
</svg>